<?xml version="1.0" encoding="utf-8"?>
<!-- Generator: Adobe Illustrator 26.1.0, SVG Export Plug-In . SVG Version: 6.00 Build 0)  -->
<svg version="1.1" id="Layer_1" xmlns="http://www.w3.org/2000/svg" xmlns:xlink="http://www.w3.org/1999/xlink" x="0px" y="0px"
	 viewBox="0 0 87.2 85.8" style="enable-background:new 0 0 87.2 85.8;" xml:space="preserve">
<style type="text/css">
	.st0{opacity:0.5;fill:#FFFFFF;enable-background:new    ;}
	.st1{fill:url(#SVGID_1_);}
	.st2{fill:url(#SVGID_00000183230903475017272960000013569325605705914803_);}
</style>
<g>
	<circle class="st0" cx="45" cy="43.6" r="42.2"/>
	<circle cx="42.2" cy="42.2" r="42.2"/>
	
		<linearGradient id="SVGID_1_" gradientUnits="userSpaceOnUse" x1="42.96" y1="44.205" x2="71.76" y2="44.205" gradientTransform="matrix(1 0 0 -1 0 86.4)">
		<stop  offset="0" style="stop-color:#000000"/>
		<stop  offset="7.620000e-02" style="stop-color:#250202"/>
		<stop  offset="0.1728" style="stop-color:#4D0505"/>
		<stop  offset="0.2759" style="stop-color:#6F0707"/>
		<stop  offset="0.3849" style="stop-color:#8B0909"/>
		<stop  offset="0.5018" style="stop-color:#A10A0A"/>
		<stop  offset="0.6306" style="stop-color:#B00B0B"/>
		<stop  offset="0.7802" style="stop-color:#B90C0C"/>
		<stop  offset="1" style="stop-color:#BC0C0C"/>
	</linearGradient>
	<path class="st1" d="M43,22.6h9l11.3,22.6L62.9,41V22.6h8.9v39.1h-9.1l-11-22.2l0.2,4.9v17.3H43V22.6z"/>
	
		<linearGradient id="SVGID_00000067957937359652434460000013892447100074517679_" gradientUnits="userSpaceOnUse" x1="12.66" y1="44.2" x2="51.76" y2="44.2" gradientTransform="matrix(1 0 0 -1 0 86.4)">
		<stop  offset="0" style="stop-color:#BC0C0C"/>
		<stop  offset="0.3962" style="stop-color:#BA0C0C"/>
		<stop  offset="0.5389" style="stop-color:#B30B0B"/>
		<stop  offset="0.6406" style="stop-color:#A80B0B"/>
		<stop  offset="0.7229" style="stop-color:#970A0A"/>
		<stop  offset="0.7934" style="stop-color:#810808"/>
		<stop  offset="0.8558" style="stop-color:#650606"/>
		<stop  offset="0.9122" style="stop-color:#450404"/>
		<stop  offset="0.9624" style="stop-color:#210202"/>
		<stop  offset="1" style="stop-color:#000000"/>
	</linearGradient>
	<path style="fill:url(#SVGID_00000067957937359652434460000013892447100074517679_);" d="M16.9,22.6h11.2
		c1.6,8.4,2.9,15.7,3.8,21.8l1-6.1c0.4-2.4,0.8-4.7,1.3-6.9l1.7-8.8h11.5l4.5,39.1H43l-2.4-26.9l-5.5,26.9h-6l-5.7-27l-2.3,27h-8.4
		L16.9,22.6z"/>
</g>
</svg>
